# xmcd
#
# Track frame offsets: 
#        150
#        15224
#        29651
#
# Disc length: 592 seconds
#
# Revision: 0
# Processed by: cddbd v1.5.1PL0 Copyright (c) Steve Scherf et al.
# Submitted via: ExactAudioCopy v0.95a5
#
DISCID=17024e03
DTITLE=Princess Superstar - I Hope To Sell A Lot Of Records At Christm
DTITLE=astime [CD Single)
DYEAR=1900
DGENRE=Christmas/Holiday
TTITLE0=I Hope To Sell A Lot Of Records At Christmastime
TTITLE1=I Hope To Sell A Lot Of Records At Christmastime (Instrumental
TTITLE1=)
TTITLE2=I Hope To Sell A Lot Of Records At Christmastime (Clean) (Radi
TTITLE2=o)
EXTD=
EXTT0=
EXTT1=
EXTT2=
PLAYORDER=
